<svg width="24" height="24" viewBox="0 0 24 24" fill="none" xmlns="http://www.w3.org/2000/svg">
<path d="M15.5559 7.64062C15.5559 7.54071 15.4741 7.45897 15.3742 7.45897H14.1367C14.0686 7.45897 14.005 7.49757 13.9755 7.55888L12.0522 11.3918H11.9773L10.054 7.55888C10.0389 7.52899 10.0159 7.50384 9.98742 7.48621C9.95897 7.46858 9.92621 7.45915 9.89274 7.45897H8.62795C8.59843 7.45897 8.56891 7.46578 8.54167 7.48167C8.45311 7.52936 8.42132 7.64062 8.469 7.72691L10.8283 12.0776H9.53397C9.43405 12.0776 9.35231 12.1593 9.35231 12.2593V12.8746C9.35231 12.9745 9.43405 13.0563 9.53397 13.0563H11.2597V13.9419H9.53397C9.43405 13.9419 9.35231 14.0236 9.35231 14.1235V14.7389C9.35231 14.8388 9.43405 14.9205 9.53397 14.9205H11.2597V16.3602C11.2597 16.4601 11.3415 16.5418 11.4414 16.5418H12.5744C12.6744 16.5418 12.7561 16.4601 12.7561 16.3602V14.9183H14.4887C14.5886 14.9183 14.6703 14.8365 14.6703 14.7366V14.1212C14.6703 14.0213 14.5886 13.9396 14.4887 13.9396H12.7561V13.054H14.4887C14.5886 13.054 14.6703 12.9723 14.6703 12.8723V12.257C14.6703 12.1571 14.5886 12.0753 14.4887 12.0753H13.1807L15.5355 7.72464C15.5468 7.69966 15.5559 7.67014 15.5559 7.64062ZM3.95937 11.8233C4.00202 9.75377 4.84429 7.78115 6.30955 6.31907C7.04754 5.58109 7.90587 4.99978 8.86184 4.5956C9.85187 4.17779 10.9032 3.96434 11.9863 3.96434C13.0717 3.96434 14.1231 4.17552 15.1108 4.5956C16.0668 4.99978 16.9251 5.58109 17.6631 6.31907C17.8902 6.54614 18.1014 6.78456 18.2966 7.03207L17.1613 7.91992C17.1342 7.94084 17.1136 7.96898 17.1019 8.00108C17.0901 8.03319 17.0876 8.06796 17.0948 8.10141C17.1019 8.13485 17.1183 8.16561 17.1421 8.19015C17.1659 8.21468 17.1962 8.23199 17.2294 8.24009L20.7899 9.10977C20.9034 9.13702 21.0147 9.05074 21.0147 8.93493L21.0329 5.26773C21.0329 5.11559 20.858 5.0293 20.7399 5.12467L19.6545 5.97392C17.8743 3.6964 15.1018 2.23633 11.9886 2.23633C6.66379 2.23633 2.33354 6.50754 2.2359 11.8142C2.23529 11.8384 2.23954 11.8625 2.2484 11.8851C2.25726 11.9077 2.27054 11.9282 2.28747 11.9456C2.3044 11.9629 2.32463 11.9767 2.34697 11.9861C2.36931 11.9956 2.39331 12.0004 2.41755 12.0004H3.77998C3.87762 12.0004 3.9571 11.9209 3.95937 11.8233ZM21.5824 12.0004H20.2199C20.1223 12.0004 20.0406 12.0799 20.0383 12.1775C19.9956 14.247 19.1534 16.2196 17.6881 17.6817C16.9569 18.416 16.0901 19.0013 15.1358 19.4052C14.1458 19.823 13.0944 20.0364 12.0113 20.0364C10.9282 20.0364 9.87457 19.8253 8.88681 19.4052C7.93253 19.0013 7.06574 18.416 6.33453 17.6817C6.10746 17.4546 5.89629 17.2162 5.701 16.9687L6.83409 16.0809C6.86114 16.0599 6.88173 16.0318 6.8935 15.9997C6.90527 15.9676 6.90773 15.9328 6.90062 15.8994C6.8935 15.8659 6.87709 15.8352 6.85327 15.8106C6.82945 15.7861 6.79919 15.7688 6.76597 15.7607L3.20549 14.891C3.09196 14.8638 2.98069 14.95 2.98069 15.0659L2.96252 18.7376C2.96252 18.8897 3.13737 18.976 3.25545 18.8806L4.34085 18.0314C6.12563 20.3044 8.89817 21.7645 12.0113 21.7645C17.3361 21.7645 21.6664 17.4932 21.764 12.1866C21.7646 12.1624 21.7604 12.1382 21.7515 12.1157C21.7427 12.0931 21.7294 12.0725 21.7125 12.0552C21.6955 12.0378 21.6753 12.0241 21.6529 12.0146C21.6306 12.0052 21.6066 12.0004 21.5824 12.0004Z" fill="white"/>
</svg>
