<svg width="24" height="24" viewBox="0 0 24 24" fill="none" xmlns="http://www.w3.org/2000/svg">
<path d="M20.8004 7.79662C21.8412 9.97331 22.0387 12.4584 21.355 14.7722C20.6713 17.0859 19.1547 19.0645 17.098 20.3258C15.0413 21.5872 12.5902 22.042 10.2179 21.6025C7.84557 21.163 5.72013 19.8603 4.25179 17.9459C2.78344 16.0314 2.0763 13.6409 2.26682 11.2358C2.45735 8.83061 3.53204 6.58127 5.28348 4.92187C7.03492 3.26248 9.33895 2.31067 11.7509 2.25014C14.1628 2.18962 16.5117 3.02467 18.3442 4.59412L20.4695 2.46787C20.6102 2.32714 20.8011 2.24808 21.0001 2.24808C21.1991 2.24808 21.39 2.32714 21.5307 2.46787C21.6715 2.6086 21.7505 2.79948 21.7505 2.9985C21.7505 3.19752 21.6715 3.38839 21.5307 3.52912L12.5307 12.5291C12.39 12.6699 12.1991 12.7489 12.0001 12.7489C11.8011 12.7489 11.6102 12.6699 11.4695 12.5291C11.3288 12.3884 11.2497 12.1975 11.2497 11.9985C11.2497 11.7995 11.3288 11.6086 11.4695 11.4679L14.0682 8.86912C13.3639 8.40333 12.5231 8.18887 11.6817 8.26045C10.8404 8.33203 10.0478 8.68547 9.43231 9.26355C8.81683 9.84163 8.41446 10.6105 8.29034 11.4457C8.16622 12.2809 8.32762 13.1336 8.7484 13.8657C9.16919 14.5978 9.82473 15.1664 10.6089 15.4795C11.3931 15.7927 12.26 15.832 13.0693 15.5911C13.8786 15.3503 14.5829 14.8433 15.0683 14.1524C15.5536 13.4614 15.7915 12.6268 15.7435 11.7838C15.738 11.6853 15.7519 11.5867 15.7845 11.4936C15.8171 11.4005 15.8677 11.3147 15.9334 11.2411C15.9991 11.1676 16.0787 11.1077 16.1676 11.0649C16.2564 11.022 16.3529 10.9972 16.4514 10.9916C16.6503 10.9804 16.8455 11.0487 16.994 11.1815C17.0676 11.2472 17.1275 11.3268 17.1703 11.4156C17.2131 11.5045 17.238 11.6009 17.2435 11.6994C17.3119 12.8927 16.9711 14.0735 16.2774 15.0468C15.5838 16.0201 14.5788 16.7276 13.4285 17.0523C12.2783 17.377 11.0517 17.2996 9.95148 16.8327C8.85123 16.3659 7.94322 15.5376 7.3775 14.4848C6.81178 13.4319 6.62223 12.2176 6.84017 11.0425C7.05811 9.86731 7.67049 8.8017 8.57611 8.02174C9.48173 7.24179 10.6264 6.79419 11.8208 6.75291C13.0153 6.71164 14.1881 7.07917 15.1454 7.79475L17.2782 5.66194C15.7152 4.36424 13.7279 3.68978 11.6979 3.76807C9.66793 3.84636 7.73844 4.6719 6.28003 6.08612C4.82163 7.50035 3.93715 9.40353 3.79646 11.4301C3.65578 13.4568 4.26881 15.4639 5.51782 17.0661C6.76683 18.6682 8.56375 19.7525 10.5634 20.1105C12.5631 20.4685 14.6246 20.0751 16.3519 19.0058C18.0792 17.9365 19.3506 16.2668 19.9218 14.3173C20.493 12.3677 20.3238 10.2759 19.4467 8.4435C19.3609 8.26398 19.3499 8.05774 19.4162 7.87014C19.4825 7.68255 19.6206 7.52897 19.8001 7.44319C19.9796 7.3574 20.1859 7.34645 20.3735 7.41273C20.5611 7.47902 20.7146 7.61711 20.8004 7.79662Z" fill="white"/>
</svg>
